<svg width="19" height="19" viewBox="0 0 19 19" fill="none" xmlns="http://www.w3.org/2000/svg">
    <path
        d="M6 10.125C5.85167 10.125 5.70666 10.081 5.58333 9.9986C5.45999 9.91619 5.36386 9.79906 5.30709 9.66201C5.25033 9.52497 5.23548 9.37417 5.26442 9.22868C5.29335 9.0832 5.36479 8.94956 5.46967 8.84467C5.57456 8.73978 5.7082 8.66835 5.85369 8.63941C5.99917 8.61047 6.14997 8.62532 6.28702 8.68209C6.42406 8.73886 6.5412 8.83498 6.62361 8.95832C6.70602 9.08166 6.75 9.22666 6.75 9.375C6.75 9.57391 6.67099 9.76468 6.53033 9.90533C6.38968 10.046 6.19892 10.125 6 10.125ZM12.75 8.625C12.6017 8.625 12.4567 8.66899 12.3333 8.7514C12.21 8.83381 12.1139 8.95094 12.0571 9.08799C12.0003 9.22503 11.9855 9.37583 12.0144 9.52132C12.0434 9.6668 12.1148 9.80044 12.2197 9.90533C12.3246 10.0102 12.4582 10.0816 12.6037 10.1106C12.7492 10.1395 12.9 10.1247 13.037 10.0679C13.1741 10.0111 13.2912 9.91502 13.3736 9.79168C13.456 9.66834 13.5 9.52334 13.5 9.375C13.5 9.17609 13.421 8.98532 13.2803 8.84467C13.1397 8.70402 12.9489 8.625 12.75 8.625ZM11.8003 12.8081C11.0723 13.2607 10.2322 13.5005 9.375 13.5005C8.5178 13.5005 7.67769 13.2607 6.94969 12.8081C6.86582 12.7609 6.767 12.7477 6.67367 12.7713C6.58035 12.7949 6.49967 12.8535 6.44835 12.9349C6.39703 13.0163 6.37899 13.1144 6.39797 13.2088C6.41695 13.3032 6.4715 13.3866 6.55032 13.4419C7.39794 13.9697 8.37648 14.2495 9.375 14.2495C10.3735 14.2495 11.3521 13.9697 12.1997 13.4419C12.2439 13.4169 12.2827 13.3833 12.3135 13.3429C12.3444 13.3026 12.3667 13.2564 12.3792 13.2071C12.3916 13.1579 12.3939 13.1066 12.386 13.0564C12.378 13.0062 12.3599 12.9582 12.3329 12.9152C12.3058 12.8723 12.2703 12.8352 12.2284 12.8064C12.1866 12.7776 12.1394 12.7575 12.0896 12.7475C12.0398 12.7375 11.9884 12.7377 11.9387 12.7481C11.889 12.7586 11.8419 12.779 11.8003 12.8081ZM18.75 9.375C18.75 11.2292 18.2002 13.0418 17.17 14.5835C16.1399 16.1252 14.6757 17.3268 12.9627 18.0364C11.2496 18.7459 9.3646 18.9316 7.54603 18.5699C5.72746 18.2081 4.057 17.3152 2.74588 16.0041C1.43476 14.693 0.541879 13.0225 0.180142 11.204C-0.181594 9.3854 0.00406189 7.5004 0.713633 5.78734C1.42321 4.07429 2.62482 2.61011 4.16653 1.57997C5.70824 0.549834 7.5208 0 9.375 0C11.8606 0.00272962 14.2436 0.991327 16.0011 2.74889C17.7587 4.50645 18.7473 6.88943 18.75 9.375ZM18 9.375C17.9979 7.11947 17.1133 4.9543 15.5355 3.34249C13.9577 1.73069 11.8119 0.800198 9.55688 0.75C8.27438 2.44406 8.25 4.10906 8.25 4.125C8.25 4.42337 8.36853 4.70952 8.57951 4.9205C8.79049 5.13147 9.07664 5.25 9.375 5.25C9.67337 5.25 9.95952 5.13147 10.1705 4.9205C10.3815 4.70952 10.5 4.42337 10.5 4.125C10.5 4.02554 10.5395 3.93016 10.6098 3.85983C10.6802 3.78951 10.7755 3.75 10.875 3.75C10.9745 3.75 11.0698 3.78951 11.1402 3.85983C11.2105 3.93016 11.25 4.02554 11.25 4.125C11.25 4.62228 11.0525 5.09919 10.7008 5.45083C10.3492 5.80246 9.87228 6 9.375 6C8.87772 6 8.40081 5.80246 8.04918 5.45083C7.69755 5.09919 7.5 4.62228 7.5 4.125C7.5 4.05188 7.515 2.50219 8.625 0.78375C6.9574 0.92931 5.36819 1.55699 4.05119 2.59024C2.73419 3.62349 1.74632 5.01765 1.20806 6.60269C0.669801 8.18774 0.604413 9.89516 1.01987 11.5167C1.43533 13.1383 2.31368 14.6039 3.5478 15.7349C4.78192 16.8658 6.31847 17.6132 7.97006 17.8859C9.62164 18.1586 11.3169 17.9447 12.849 17.2705C14.3812 16.5962 15.684 15.4907 16.5987 14.0887C17.5133 12.6868 18.0002 11.0489 18 9.375Z"
        fill="#674626" />
</svg>