<svg viewBox="0 0 15 15" fill="none" xmlns="http://www.w3.org/2000/svg">
    <path
        d="M11.1653 7.18796L13.552 4.80202C14.0796 4.27449 14.3759 3.559 14.3759 2.81296C14.3759 2.06692 14.0796 1.35143 13.552 0.823897C13.0245 0.296365 12.309 5.55846e-09 11.563 0C10.8169 -5.55845e-09 10.1014 0.296365 9.5739 0.823897L7.18796 3.21062L4.80202 0.823897C4.27449 0.296365 3.559 -7.86084e-09 2.81296 0C2.06692 7.86084e-09 1.35143 0.296365 0.823897 0.823897C0.296365 1.35143 7.86084e-09 2.06692 0 2.81296C-7.86084e-09 3.559 0.296365 4.27449 0.823897 4.80202L3.21062 7.18796L0.823897 9.5739C0.296365 10.1014 0 10.8169 0 11.563C0 12.309 0.296365 13.0245 0.823897 13.552C1.35143 14.0796 2.06692 14.3759 2.81296 14.3759C3.559 14.3759 4.27449 14.0796 4.80202 13.552L7.18796 11.1653L9.5739 13.552C10.1014 14.0796 10.8169 14.3759 11.563 14.3759C12.309 14.3759 13.0245 14.0796 13.552 13.552C14.0796 13.0245 14.3759 12.309 14.3759 11.563C14.3759 10.8169 14.0796 10.1014 13.552 9.5739L11.1653 7.18796ZM10.0161 1.26608C10.4263 0.855828 10.9828 0.625348 11.563 0.625348C12.1431 0.625348 12.6996 0.855828 13.1098 1.26608C13.5201 1.67634 13.7506 2.23277 13.7506 2.81296C13.7506 3.39315 13.5201 3.94958 13.1098 4.35983L10.7231 6.74577L7.63015 3.6528L10.0161 1.26608ZM10.2817 7.18796L7.18796 10.2817L4.09421 7.18796L7.18796 4.09421L10.2817 7.18796ZM1.26608 4.35983C0.855828 3.94958 0.625348 3.39315 0.625348 2.81296C0.625348 2.23277 0.855828 1.67634 1.26608 1.26608C1.67634 0.855828 2.23277 0.625348 2.81296 0.625348C3.39315 0.625348 3.94958 0.855828 4.35983 1.26608L6.74577 3.6528L3.6528 6.74577L1.26608 4.35983ZM4.35983 13.1098C3.94958 13.5201 3.39315 13.7506 2.81296 13.7506C2.23277 13.7506 1.67634 13.5201 1.26608 13.1098C0.855828 12.6996 0.625348 12.1431 0.625348 11.563C0.625348 10.9828 0.855828 10.4263 1.26608 10.0161L3.6528 7.63015L6.74577 10.7231L4.35983 13.1098ZM13.1098 13.1098C12.9067 13.313 12.6655 13.4741 12.4001 13.5841C12.1347 13.694 11.8502 13.7506 11.563 13.7506C11.2757 13.7506 10.9912 13.694 10.7258 13.5841C10.4604 13.4741 10.2192 13.313 10.0161 13.1098L7.63015 10.7231L10.7231 7.63015L13.1098 10.0161C13.313 10.2192 13.4741 10.4604 13.5841 10.7258C13.694 10.9912 13.7506 11.2757 13.7506 11.563C13.7506 11.8502 13.694 12.1347 13.5841 12.4001C13.4741 12.6655 13.313 12.9067 13.1098 13.1098ZM6.56296 7.18796C6.56296 7.06435 6.59962 6.94351 6.66829 6.84073C6.73697 6.73795 6.83458 6.65784 6.94878 6.61053C7.06299 6.56323 7.18865 6.55085 7.30989 6.57497C7.43113 6.59908 7.54249 6.65861 7.6299 6.74602C7.71731 6.83343 7.77683 6.94479 7.80095 7.06603C7.82507 7.18727 7.81269 7.31293 7.76538 7.42714C7.71808 7.54134 7.63797 7.63895 7.53519 7.70763C7.43241 7.7763 7.31157 7.81296 7.18796 7.81296C7.0222 7.81296 6.86323 7.74711 6.74602 7.6299C6.62881 7.51269 6.56296 7.35372 6.56296 7.18796Z"
        fill="currentColor" />
</svg>