<svg viewBox="0 0 19 14" fill="none" xmlns="http://www.w3.org/2000/svg">
    <path
        d="M15.3125 2.5H0.625V0.3125C0.625 0.22962 0.592076 0.150134 0.533471 0.0915292C0.474866 0.0329241 0.39538 0 0.3125 0C0.22962 0 0.150134 0.0329241 0.0915292 0.0915292C0.0329241 0.150134 0 0.22962 0 0.3125V12.8125C0 12.8954 0.0329241 12.9749 0.0915292 13.0335C0.150134 13.0921 0.22962 13.125 0.3125 13.125C0.39538 13.125 0.474866 13.0921 0.533471 13.0335C0.592076 12.9749 0.625 12.8954 0.625 12.8125V10H17.5V12.8125C17.5 12.8954 17.5329 12.9749 17.5915 13.0335C17.6501 13.0921 17.7296 13.125 17.8125 13.125C17.8954 13.125 17.9749 13.0921 18.0335 13.0335C18.0921 12.9749 18.125 12.8954 18.125 12.8125V5.3125C18.125 4.56658 17.8287 3.85121 17.3012 3.32376C16.7738 2.79632 16.0584 2.5 15.3125 2.5ZM0.625 3.125H6.875V9.375H0.625V3.125ZM7.5 9.375V3.125H15.3125C15.8927 3.125 16.4491 3.35547 16.8593 3.7657C17.2695 4.17594 17.5 4.73234 17.5 5.3125V9.375H7.5Z"
        fill="currentColor" />
</svg>