<svg viewBox="0 0 16 15" fill="none" xmlns="http://www.w3.org/2000/svg">
    <path
        d="M6.25 6.5625C6.25 6.47962 6.28292 6.40013 6.34153 6.34153C6.40013 6.28292 6.47962 6.25 6.5625 6.25H9.0625C9.14538 6.25 9.22487 6.28292 9.28347 6.34153C9.34208 6.40013 9.375 6.47962 9.375 6.5625C9.375 6.64538 9.34208 6.72487 9.28347 6.78347C9.22487 6.84208 9.14538 6.875 9.0625 6.875H6.5625C6.47962 6.875 6.40013 6.84208 6.34153 6.78347C6.28292 6.72487 6.25 6.64538 6.25 6.5625ZM15.625 3.4375V13.4375C15.625 13.6861 15.5262 13.9246 15.3504 14.1004C15.1746 14.2762 14.9361 14.375 14.6875 14.375H0.9375C0.68886 14.375 0.450403 14.2762 0.274587 14.1004C0.0987721 13.9246 0 13.6861 0 13.4375V3.4375C0 3.18886 0.0987721 2.9504 0.274587 2.77459C0.450403 2.59877 0.68886 2.5 0.9375 2.5H4.375V1.5625C4.375 1.1481 4.53962 0.750671 4.83265 0.457646C5.12567 0.16462 5.5231 0 5.9375 0H9.6875C10.1019 0 10.4993 0.16462 10.7924 0.457646C11.0854 0.750671 11.25 1.1481 11.25 1.5625V2.5H14.6875C14.9361 2.5 15.1746 2.59877 15.3504 2.77459C15.5262 2.9504 15.625 3.18886 15.625 3.4375ZM5 2.5H10.625V1.5625C10.625 1.31386 10.5262 1.0754 10.3504 0.899587C10.1746 0.723772 9.93614 0.625 9.6875 0.625H5.9375C5.68886 0.625 5.4504 0.723772 5.27459 0.899587C5.09877 1.0754 5 1.31386 5 1.5625V2.5ZM0.625 3.4375V6.875C2.8206 8.10552 5.29559 8.75116 7.8125 8.75C10.3294 8.75116 12.8044 8.10552 15 6.875V3.4375C15 3.35462 14.9671 3.27513 14.9085 3.21653C14.8499 3.15792 14.7704 3.125 14.6875 3.125H0.9375C0.85462 3.125 0.775134 3.15792 0.716529 3.21653C0.657924 3.27513 0.625 3.35462 0.625 3.4375ZM15 13.4375V7.58594C12.7866 8.7613 10.3186 9.37562 7.8125 9.375C5.30636 9.37581 2.83833 8.76148 0.625 7.58594V13.4375C0.625 13.5204 0.657924 13.5999 0.716529 13.6585C0.775134 13.7171 0.85462 13.75 0.9375 13.75H14.6875C14.7704 13.75 14.8499 13.7171 14.9085 13.6585C14.9671 13.5999 15 13.5204 15 13.4375Z"
        fill="currentColor" />
</svg>