<svg width="24" height="14" viewBox="0 0 24 14" fill="none" xmlns="http://www.w3.org/2000/svg">
    <path
        d="M22.5 4.50001H19.8103L15.75 0.439695C15.6112 0.299801 15.446 0.188889 15.264 0.113407C15.082 0.0379249 14.8867 -0.000621974 14.6897 7.58895e-06H4.15125C3.90487 0.000463761 3.66239 0.0616028 3.44525 0.178022C3.22811 0.294441 3.04299 0.462555 2.90625 0.667508L0.125625 4.83376C0.0439236 4.95723 0.000244554 5.10195 0 5.25001L0 9.75001C0 10.1478 0.158035 10.5294 0.43934 10.8107C0.720644 11.092 1.10218 11.25 1.5 11.25H3.09375C3.25898 11.8953 3.63428 12.4673 4.16048 12.8757C4.68669 13.2842 5.33387 13.5059 6 13.5059C6.66613 13.5059 7.31331 13.2842 7.83952 12.8757C8.36572 12.4673 8.74102 11.8953 8.90625 11.25H15.0938C15.259 11.8953 15.6343 12.4673 16.1605 12.8757C16.6867 13.2842 17.3339 13.5059 18 13.5059C18.6661 13.5059 19.3133 13.2842 19.8395 12.8757C20.3657 12.4673 20.741 11.8953 20.9062 11.25H22.5C22.8978 11.25 23.2794 11.092 23.5607 10.8107C23.842 10.5294 24 10.1478 24 9.75001V6.00001C24 5.60218 23.842 5.22065 23.5607 4.93935C23.2794 4.65804 22.8978 4.50001 22.5 4.50001ZM4.15125 1.50001H14.6897L17.6897 4.50001H2.15625L4.15125 1.50001ZM6 12C5.70333 12 5.41332 11.912 5.16665 11.7472C4.91997 11.5824 4.72771 11.3481 4.61418 11.074C4.50065 10.7999 4.47094 10.4983 4.52882 10.2074C4.5867 9.9164 4.72956 9.64913 4.93934 9.43935C5.14912 9.22957 5.41639 9.08671 5.70736 9.02883C5.99834 8.97095 6.29994 9.00066 6.57403 9.11419C6.84811 9.22772 7.08238 9.41998 7.2472 9.66665C7.41203 9.91333 7.5 10.2033 7.5 10.5C7.5 10.8978 7.34196 11.2794 7.06066 11.5607C6.77936 11.842 6.39782 12 6 12ZM18 12C17.7033 12 17.4133 11.912 17.1666 11.7472C16.92 11.5824 16.7277 11.3481 16.6142 11.074C16.5006 10.7999 16.4709 10.4983 16.5288 10.2074C16.5867 9.9164 16.7296 9.64913 16.9393 9.43935C17.1491 9.22957 17.4164 9.08671 17.7074 9.02883C17.9983 8.97095 18.2999 9.00066 18.574 9.11419C18.8481 9.22772 19.0824 9.41998 19.2472 9.66665C19.412 9.91333 19.5 10.2033 19.5 10.5C19.5 10.8978 19.342 11.2794 19.0607 11.5607C18.7794 11.842 18.3978 12 18 12Z"
        fill="currentColor" />
</svg>