<svg viewBox="0 0 23 18" fill="none" xmlns="http://www.w3.org/2000/svg">
    <path
        d="M21.75 6.75H20.7375L18.1331 0.890625C18.0153 0.625525 17.8231 0.400293 17.5798 0.242217C17.3365 0.0841403 17.0526 3.47268e-06 16.7625 0H5.7375C5.44738 3.47268e-06 5.16349 0.0841403 4.92022 0.242217C4.67695 0.400293 4.48474 0.625525 4.36688 0.890625L1.7625 6.75H0.75C0.551088 6.75 0.360322 6.82902 0.21967 6.96967C0.0790176 7.11032 0 7.30109 0 7.5C0 7.69891 0.0790176 7.88968 0.21967 8.03033C0.360322 8.17098 0.551088 8.25 0.75 8.25H1.5V15.75C1.5 16.1478 1.65804 16.5294 1.93934 16.8107C2.22064 17.092 2.60218 17.25 3 17.25H5.25C5.64782 17.25 6.02936 17.092 6.31066 16.8107C6.59196 16.5294 6.75 16.1478 6.75 15.75V15H15.75V15.75C15.75 16.1478 15.908 16.5294 16.1893 16.8107C16.4706 17.092 16.8522 17.25 17.25 17.25H19.5C19.8978 17.25 20.2794 17.092 20.5607 16.8107C20.842 16.5294 21 16.1478 21 15.75V8.25H21.75C21.9489 8.25 22.1397 8.17098 22.2803 8.03033C22.421 7.88968 22.5 7.69891 22.5 7.5C22.5 7.30109 22.421 7.11032 22.2803 6.96967C22.1397 6.82902 21.9489 6.75 21.75 6.75ZM6.75 11.25H4.5C4.30109 11.25 4.11032 11.171 3.96967 11.0303C3.82902 10.8897 3.75 10.6989 3.75 10.5C3.75 10.3011 3.82902 10.1103 3.96967 9.96967C4.11032 9.82902 4.30109 9.75 4.5 9.75H6.75C6.94891 9.75 7.13968 9.82902 7.28033 9.96967C7.42098 10.1103 7.5 10.3011 7.5 10.5C7.5 10.6989 7.42098 10.8897 7.28033 11.0303C7.13968 11.171 6.94891 11.25 6.75 11.25ZM18 11.25H15.75C15.5511 11.25 15.3603 11.171 15.2197 11.0303C15.079 10.8897 15 10.6989 15 10.5C15 10.3011 15.079 10.1103 15.2197 9.96967C15.3603 9.82902 15.5511 9.75 15.75 9.75H18C18.1989 9.75 18.3897 9.82902 18.5303 9.96967C18.671 10.1103 18.75 10.3011 18.75 10.5C18.75 10.6989 18.671 10.8897 18.5303 11.0303C18.3897 11.171 18.1989 11.25 18 11.25ZM3.40406 6.75L5.7375 1.5H16.7625L19.0959 6.75H3.40406Z"
        fill="currentColor" />
</svg>