<svg width="22" height="17" viewBox="0 0 22 17" fill="none" xmlns="http://www.w3.org/2000/svg">
    <path
        d="M21.375 6.75H20.1188L17.4159 0.668442C17.3274 0.469018 17.1828 0.29965 16.9997 0.180967C16.8165 0.0622851 16.6029 -0.000588894 16.3847 4.15699e-06H5.3625C5.1443 -0.000588894 4.93064 0.0622851 4.74754 0.180967C4.56444 0.29965 4.4198 0.469018 4.33125 0.668442L1.63125 6.75H0.375C0.275544 6.75 0.180161 6.78951 0.109835 6.85984C0.0395088 6.93017 0 7.02555 0 7.125C0 7.22446 0.0395088 7.31984 0.109835 7.39017C0.180161 7.4605 0.275544 7.5 0.375 7.5H1.5V15.375C1.5 15.6734 1.61853 15.9595 1.8295 16.1705C2.04048 16.3815 2.32663 16.5 2.625 16.5H4.875C5.17337 16.5 5.45952 16.3815 5.6705 16.1705C5.88147 15.9595 6 15.6734 6 15.375V13.5H15.75V15.375C15.75 15.6734 15.8685 15.9595 16.0795 16.1705C16.2905 16.3815 16.5766 16.5 16.875 16.5H19.125C19.4234 16.5 19.7095 16.3815 19.9205 16.1705C20.1315 15.9595 20.25 15.6734 20.25 15.375V7.5H21.375C21.4745 7.5 21.5698 7.4605 21.6402 7.39017C21.7105 7.31984 21.75 7.22446 21.75 7.125C21.75 7.02555 21.7105 6.93017 21.6402 6.85984C21.5698 6.78951 21.4745 6.75 21.375 6.75ZM5.01937 0.973129C5.0488 0.906694 5.0969 0.850238 5.15781 0.810627C5.21873 0.771016 5.28984 0.749954 5.3625 0.750004H16.3875C16.4602 0.749954 16.5313 0.771016 16.5922 0.810627C16.6531 0.850238 16.7012 0.906694 16.7306 0.973129L19.2975 6.75H2.4525L5.01937 0.973129ZM5.25 15.375C5.25 15.4745 5.21049 15.5698 5.14017 15.6402C5.06984 15.7105 4.97446 15.75 4.875 15.75H2.625C2.52554 15.75 2.43016 15.7105 2.35984 15.6402C2.28951 15.5698 2.25 15.4745 2.25 15.375V13.5H5.25V15.375ZM19.125 15.75H16.875C16.7755 15.75 16.6802 15.7105 16.6098 15.6402C16.5395 15.5698 16.5 15.4745 16.5 15.375V13.5H19.5V15.375C19.5 15.4745 19.4605 15.5698 19.3902 15.6402C19.3198 15.7105 19.2245 15.75 19.125 15.75ZM19.5 12.75H2.25V7.5H19.5V12.75ZM4.5 10.125C4.5 10.0255 4.53951 9.93017 4.60984 9.85984C4.68016 9.78951 4.77554 9.75 4.875 9.75H6.375C6.47446 9.75 6.56984 9.78951 6.64017 9.85984C6.71049 9.93017 6.75 10.0255 6.75 10.125C6.75 10.2245 6.71049 10.3198 6.64017 10.3902C6.56984 10.4605 6.47446 10.5 6.375 10.5H4.875C4.77554 10.5 4.68016 10.4605 4.60984 10.3902C4.53951 10.3198 4.5 10.2245 4.5 10.125ZM15 10.125C15 10.0255 15.0395 9.93017 15.1098 9.85984C15.1802 9.78951 15.2755 9.75 15.375 9.75H16.875C16.9745 9.75 17.0698 9.78951 17.1402 9.85984C17.2105 9.93017 17.25 10.0255 17.25 10.125C17.25 10.2245 17.2105 10.3198 17.1402 10.3902C17.0698 10.4605 16.9745 10.5 16.875 10.5H15.375C15.2755 10.5 15.1802 10.4605 15.1098 10.3902C15.0395 10.3198 15 10.2245 15 10.125Z"
        fill="#674626" />
</svg>