<svg viewBox="0 0 25 21" fill="none" xmlns="http://www.w3.org/2000/svg">
    <path
        d="M25 20.5C25 20.6326 24.9473 20.7598 24.8536 20.8536C24.7598 20.9473 24.6326 21 24.5 21H0.5C0.367392 21 0.240215 20.9473 0.146447 20.8536C0.0526785 20.7598 0 20.6326 0 20.5V0.5C0 0.367392 0.0526785 0.240215 0.146447 0.146447C0.240215 0.0526785 0.367392 0 0.5 0C0.632608 0 0.759785 0.0526785 0.853553 0.146447C0.947321 0.240215 1 0.367392 1 0.5V15.2925L8.14625 8.14625C8.19269 8.09976 8.24783 8.06288 8.30853 8.03772C8.36923 8.01256 8.43429 7.99961 8.5 7.99961C8.56571 7.99961 8.63077 8.01256 8.69147 8.03772C8.75217 8.06288 8.80731 8.09976 8.85375 8.14625L12.5 11.7925L20.2925 4H16.5C16.3674 4 16.2402 3.94732 16.1464 3.85355C16.0527 3.75979 16 3.63261 16 3.5C16 3.36739 16.0527 3.24021 16.1464 3.14645C16.2402 3.05268 16.3674 3 16.5 3H21.5C21.6326 3 21.7598 3.05268 21.8536 3.14645C21.9473 3.24021 22 3.36739 22 3.5V8.5C22 8.63261 21.9473 8.75979 21.8536 8.85355C21.7598 8.94732 21.6326 9 21.5 9C21.3674 9 21.2402 8.94732 21.1464 8.85355C21.0527 8.75979 21 8.63261 21 8.5V4.7075L12.8538 12.8538C12.8073 12.9002 12.7522 12.9371 12.6915 12.9623C12.6308 12.9874 12.5657 13.0004 12.5 13.0004C12.4343 13.0004 12.3692 12.9874 12.3085 12.9623C12.2478 12.9371 12.1927 12.9002 12.1462 12.8538L8.5 9.2075L1 16.7075V20H24.5C24.6326 20 24.7598 20.0527 24.8536 20.1464C24.9473 20.2402 25 20.3674 25 20.5Z"
        fill="currentColor" />
</svg>