<svg viewBox="0 0 40 35" fill="none" xmlns="http://www.w3.org/2000/svg">
    <path
        d="M38.2812 32.8125H35.9375V0.78125C35.9375 0.57405 35.8552 0.375336 35.7087 0.228823C35.5622 0.0823102 35.3634 0 35.1562 0H24.2188C24.0115 0 23.8128 0.0823102 23.6663 0.228823C23.5198 0.375336 23.4375 0.57405 23.4375 0.78125V9.375H13.2812C13.074 9.375 12.8753 9.45731 12.7288 9.60382C12.5823 9.75033 12.5 9.94905 12.5 10.1562V18.75H3.90625C3.69905 18.75 3.50034 18.8323 3.35382 18.9788C3.20731 19.1253 3.125 19.324 3.125 19.5312V32.8125H0.78125C0.57405 32.8125 0.375336 32.8948 0.228823 33.0413C0.0823102 33.1878 0 33.3866 0 33.5938C0 33.8009 0.0823102 33.9997 0.228823 34.1462C0.375336 34.2927 0.57405 34.375 0.78125 34.375H38.2812C38.4884 34.375 38.6872 34.2927 38.8337 34.1462C38.9802 33.9997 39.0625 33.8009 39.0625 33.5938C39.0625 33.3866 38.9802 33.1878 38.8337 33.0413C38.6872 32.8948 38.4884 32.8125 38.2812 32.8125ZM25 1.5625H34.375V32.8125H25V1.5625ZM14.0625 10.9375H23.4375V32.8125H14.0625V10.9375ZM4.6875 20.3125H12.5V32.8125H4.6875V20.3125Z"
        fill="currentColor" />
</svg>