<svg viewBox="0 0 40 35" fill="none" xmlns="http://www.w3.org/2000/svg">
    <path
        d="M33.5938 23.4375C32.2788 23.4376 31.0079 23.9116 30.014 24.7724C29.02 25.6333 28.3695 26.8235 28.1816 28.125H8.59375C6.72895 28.125 4.94052 27.3842 3.62191 26.0656C2.30329 24.747 1.5625 22.9586 1.5625 21.0938C1.5625 19.2289 2.30329 17.4405 3.62191 16.1219C4.94052 14.8033 6.72895 14.0625 8.59375 14.0625H27.3438C29.2086 14.0625 30.997 13.3217 32.3156 12.0031C33.6342 10.6845 34.375 8.89605 34.375 7.03125C34.375 5.16645 33.6342 3.37802 32.3156 2.05941C30.997 0.74079 29.2086 2.77877e-08 27.3438 0H8.59375C8.38655 0 8.18783 0.0823102 8.04132 0.228823C7.89481 0.375336 7.8125 0.57405 7.8125 0.78125C7.8125 0.98845 7.89481 1.18716 8.04132 1.33368C8.18783 1.48019 8.38655 1.5625 8.59375 1.5625H27.3438C28.7942 1.5625 30.1852 2.13867 31.2107 3.16426C32.2363 4.18985 32.8125 5.58085 32.8125 7.03125C32.8125 8.48165 32.2363 9.87265 31.2107 10.8982C30.1852 11.9238 28.7942 12.5 27.3438 12.5H8.59375C6.31455 12.5 4.12869 13.4054 2.51705 15.0171C0.905411 16.6287 0 18.8145 0 21.0938C0 23.373 0.905411 25.5588 2.51705 27.1705C4.12869 28.7821 6.31455 29.6875 8.59375 29.6875H28.1816C28.3314 30.725 28.7762 31.6977 29.4631 32.4896C30.1499 33.2815 31.0499 33.8593 32.0559 34.1541C33.0618 34.449 34.1313 34.4486 35.137 34.1529C36.1427 33.8572 37.0422 33.2786 37.7285 32.4862C38.4147 31.6937 38.8587 30.7207 39.0076 29.6831C39.1565 28.6454 39.004 27.5868 38.5684 26.6334C38.1327 25.6799 37.4322 24.8718 36.5502 24.3052C35.6683 23.7386 34.642 23.4374 33.5938 23.4375ZM33.5938 32.8125C32.8212 32.8125 32.0659 32.5834 31.4236 32.1542C30.7812 31.725 30.2805 31.1149 29.9848 30.4011C29.6892 29.6873 29.6118 28.9019 29.7626 28.1442C29.9133 27.3864 30.2853 26.6904 30.8316 26.1441C31.3779 25.5978 32.0739 25.2258 32.8317 25.0751C33.5894 24.9243 34.3748 25.0017 35.0886 25.2973C35.8024 25.593 36.4125 26.0937 36.8417 26.7361C37.2709 27.3784 37.5 28.1337 37.5 28.9062C37.5 29.9423 37.0885 30.9358 36.3559 31.6684C35.6233 32.401 34.6298 32.8125 33.5938 32.8125Z"
        fill="currentColor" />
</svg>