<svg width="19" height="21" viewBox="0 0 19 21" fill="none" xmlns="http://www.w3.org/2000/svg">
    <path
        d="M11.996 0C10.5752 9.7129e-05 9.1904 0.447373 8.03795 1.27844C6.8855 2.1095 6.02384 3.28219 5.57509 4.63031C4.95703 4.47825 4.31375 4.45903 3.68772 4.57392C3.06169 4.68881 2.46715 4.9352 1.94336 5.29681C1.41958 5.65843 0.978462 6.12704 0.649146 6.67172C0.319829 7.21639 0.109803 7.82472 0.0329364 8.45655C-0.0439302 9.08838 0.0141113 9.72933 0.203228 10.3371C0.392345 10.9448 0.708235 11.5055 1.13004 11.9822C1.55184 12.4588 2.06996 12.8406 2.65019 13.1022C3.23041 13.3639 3.85954 13.4994 4.49603 13.5H8.70915L6.79946 16.6819C6.76527 16.7388 6.7468 16.8037 6.74594 16.8701C6.74508 16.9365 6.76186 17.0019 6.79456 17.0597C6.82726 17.1175 6.87472 17.1656 6.93207 17.199C6.98943 17.2324 7.05464 17.25 7.12103 17.25H10.2092L8.29946 20.4319C8.2741 20.4741 8.25731 20.5209 8.25004 20.5696C8.24276 20.6184 8.24516 20.668 8.25709 20.7158C8.26901 20.7636 8.29024 20.8086 8.31954 20.8482C8.34885 20.8878 8.38567 20.9212 8.4279 20.9466C8.47013 20.9719 8.51694 20.9887 8.56566 20.996C8.61438 21.0033 8.66405 21.0009 8.71185 20.9889C8.75964 20.977 8.80461 20.9558 8.8442 20.9265C8.8838 20.8972 8.91723 20.8604 8.94259 20.8181L11.1926 17.0681C11.2268 17.0112 11.2452 16.9463 11.2461 16.8799C11.247 16.8135 11.2302 16.7481 11.1975 16.6903C11.1648 16.6325 11.1173 16.5844 11.06 16.551C11.0026 16.5176 10.9374 16.5 10.871 16.5H7.7829L9.5829 13.5H11.996C13.7862 13.5 15.5031 12.7888 16.769 11.523C18.0349 10.2571 18.746 8.54021 18.746 6.75C18.746 4.95979 18.0349 3.2429 16.769 1.97703C15.5031 0.711159 13.7862 0 11.996 0ZM11.996 12.75H4.49603C3.96624 12.7496 3.44256 12.6369 2.95947 12.4194C2.47638 12.202 2.04486 11.8846 1.69334 11.4882C1.34181 11.0919 1.07826 10.6255 0.920045 10.1199C0.761829 9.6143 0.712542 9.0809 0.775429 8.55486C0.838316 8.02882 1.01195 7.52208 1.28489 7.06802C1.55784 6.61395 1.92389 6.22287 2.35895 5.92055C2.794 5.61822 3.28817 5.41151 3.80891 5.31403C4.32965 5.21655 4.86514 5.23051 5.38009 5.355C5.31047 5.68399 5.26565 6.01774 5.24603 6.35344C5.24031 6.45289 5.27433 6.55055 5.34061 6.62492C5.4069 6.69929 5.50001 6.74428 5.59946 6.75C5.69892 6.75572 5.79657 6.72169 5.87094 6.65541C5.94531 6.58913 5.99031 6.49602 5.99603 6.39656C6.06395 5.22574 6.4732 4.10042 7.17326 3.15948C7.87333 2.21855 8.83358 1.50319 9.9355 1.10167C11.0374 0.700157 12.2328 0.630066 13.3741 0.90005C14.5154 1.17003 15.5527 1.76827 16.3579 2.62094C17.1631 3.47361 17.7011 4.54339 17.9054 5.69826C18.1097 6.85312 17.9713 8.04253 17.5075 9.1197C17.0436 10.1969 16.2745 11.1146 15.2951 11.7598C14.3157 12.4049 13.1688 12.7491 11.996 12.75Z"
        fill="#4A4541" />
</svg>