<svg width="22" height="17" viewBox="0 0 22 17" fill="none" xmlns="http://www.w3.org/2000/svg">
    <path
        d="M18.7483 5.27156V3.375C18.7483 2.47989 18.3927 1.62145 17.7597 0.988515C17.1268 0.355579 16.2684 0 15.3733 0H6.37325C5.47815 0 4.6197 0.355579 3.98677 0.988515C3.35383 1.62145 2.99825 2.47989 2.99825 3.375V5.27156C2.17357 5.3642 1.41192 5.75743 0.858838 6.37612C0.305752 6.99482 0 7.7956 0 8.62547C0 9.45534 0.305752 10.2561 0.858838 10.8748C1.41192 11.4935 2.17357 11.8867 2.99825 11.9794V15.375C2.99825 15.6734 3.11678 15.9595 3.32776 16.1705C3.53874 16.3815 3.82488 16.5 4.12325 16.5H17.6233C17.9216 16.5 18.2078 16.3815 18.4187 16.1705C18.6297 15.9595 18.7483 15.6734 18.7483 15.375V11.9794C19.5729 11.8867 20.3346 11.4935 20.8877 10.8748C21.4408 10.2561 21.7465 9.45534 21.7465 8.62547C21.7465 7.7956 21.4408 6.99482 20.8877 6.37612C20.3346 5.75743 19.5729 5.3642 18.7483 5.27156ZM6.37325 0.75H15.3733C16.0694 0.75 16.7371 1.02656 17.2294 1.51884C17.7217 2.01113 17.9983 2.67881 17.9983 3.375V5.27156C17.1733 5.36379 16.4113 5.75678 15.8579 6.37542C15.3045 6.99405 14.9984 7.79494 14.9983 8.625V9H6.74825V8.625C6.74809 7.79494 6.44204 6.99405 5.88861 6.37542C5.33517 5.75678 4.57317 5.36379 3.74825 5.27156V3.375C3.74825 2.67881 4.02482 2.01113 4.5171 1.51884C5.00938 1.02656 5.67706 0.75 6.37325 0.75ZM18.4014 11.25H18.3733C18.2738 11.25 18.1784 11.2895 18.1081 11.3598C18.0378 11.4302 17.9983 11.5255 17.9983 11.625V15.375C17.9983 15.4745 17.9587 15.5698 17.8884 15.6402C17.8181 15.7105 17.7227 15.75 17.6233 15.75H4.12325C4.0238 15.75 3.92841 15.7105 3.85809 15.6402C3.78776 15.5698 3.74825 15.4745 3.74825 15.375V11.625C3.74825 11.5255 3.70874 11.4302 3.63842 11.3598C3.56809 11.2895 3.47271 11.25 3.37325 11.25H3.34513C2.82719 11.2445 2.32246 11.0858 1.8945 10.794C1.46654 10.5022 1.13446 10.0903 0.94009 9.61021C0.745716 9.13009 0.697728 8.6032 0.802168 8.09586C0.906608 7.58853 1.15881 7.12344 1.52702 6.75913C1.89522 6.39483 2.36298 6.1476 2.8714 6.04857C3.37982 5.94954 3.90617 6.00314 4.38419 6.20262C4.86221 6.4021 5.27052 6.73854 5.55774 7.16959C5.84495 7.60064 5.99822 8.10703 5.99825 8.625V12.375C5.99825 12.4745 6.03776 12.5698 6.10809 12.6402C6.17841 12.7105 6.2738 12.75 6.37325 12.75C6.47271 12.75 6.56809 12.7105 6.63842 12.6402C6.70874 12.5698 6.74825 12.4745 6.74825 12.375V9.75H14.9983V12.375C14.9983 12.4745 15.0378 12.5698 15.1081 12.6402C15.1784 12.7105 15.2738 12.75 15.3733 12.75C15.4727 12.75 15.5681 12.7105 15.6384 12.6402C15.7087 12.5698 15.7483 12.4745 15.7483 12.375V8.625C15.7483 8.10703 15.9016 7.60064 16.1888 7.16959C16.476 6.73854 16.8843 6.4021 17.3623 6.20262C17.8403 6.00314 18.3667 5.94954 18.8751 6.04857C19.3835 6.1476 19.8513 6.39483 20.2195 6.75913C20.5877 7.12344 20.8399 7.58853 20.9443 8.09586C21.0488 8.6032 21.0008 9.13009 20.8064 9.61021C20.612 10.0903 20.28 10.5022 19.852 10.794C19.424 11.0858 18.9193 11.2445 18.4014 11.25Z"
        fill="currentColor" />
</svg>