<svg viewBox="0 0 17 15" fill="none" xmlns="http://www.w3.org/2000/svg">
    <path
        d="M4.0625 7.5H0.9375C0.85462 7.5 0.775134 7.46708 0.716529 7.40847C0.657924 7.34987 0.625 7.27038 0.625 7.1875C0.625 7.10462 0.657924 7.02513 0.716529 6.96653C0.775134 6.90792 0.85462 6.875 0.9375 6.875H3.89531L5.05234 5.13906C5.08087 5.0962 5.11955 5.06105 5.16493 5.03673C5.21032 5.01242 5.26101 4.9997 5.3125 4.9997C5.36399 4.9997 5.41468 5.01242 5.46007 5.03673C5.50545 5.06105 5.54413 5.0962 5.57266 5.13906L7.8125 8.49844L8.80234 7.01406C8.8309 6.97125 8.8696 6.93616 8.91498 6.9119C8.96037 6.88764 9.01104 6.87497 9.0625 6.875H10.9375C11.0204 6.875 11.0999 6.90792 11.1585 6.96653C11.2171 7.02513 11.25 7.10462 11.25 7.1875C11.25 7.27038 11.2171 7.34987 11.1585 7.40847C11.0999 7.46708 11.0204 7.5 10.9375 7.5H9.22969L8.07266 9.23594C8.04413 9.2788 8.00545 9.31395 7.96007 9.33827C7.91468 9.36258 7.86399 9.37531 7.8125 9.37531C7.76101 9.37531 7.71032 9.36258 7.66493 9.33827C7.61955 9.31395 7.58087 9.2788 7.55234 9.23594L5.3125 5.87578L4.32266 7.36016C4.29418 7.40311 4.25553 7.43835 4.21014 7.46275C4.16475 7.48715 4.11403 7.49995 4.0625 7.5ZM12.3438 0C10.6687 0 9.225 0.796094 8.4375 2.11484C7.65 0.796094 6.20625 0 4.53125 0C3.32993 0.00144725 2.17823 0.47931 1.32877 1.32877C0.47931 2.17823 0.00144725 3.32993 0 4.53125C0 4.58646 0 4.64193 0 4.69766C0.0026936 4.78054 0.0382009 4.85895 0.0987107 4.91565C0.15922 4.97235 0.239776 5.00269 0.322656 5C0.405536 4.99731 0.483952 4.9618 0.540652 4.90129C0.597353 4.84078 0.627694 4.76022 0.625 4.67734C0.625 4.62891 0.625 4.58047 0.625 4.53125C0.62624 3.49563 1.03819 2.50278 1.77048 1.77048C2.50278 1.03819 3.49563 0.62624 4.53125 0.625C6.18047 0.625 7.56641 1.50859 8.14844 2.93047C8.17198 2.98778 8.21203 3.03681 8.2635 3.07131C8.31497 3.10581 8.37554 3.12423 8.4375 3.12423C8.49946 3.12423 8.56003 3.10581 8.6115 3.07131C8.66297 3.03681 8.70302 2.98778 8.72656 2.93047C9.30859 1.50859 10.6945 0.625 12.3438 0.625C13.3794 0.62624 14.3722 1.03819 15.1045 1.77048C15.8368 2.50278 16.2488 3.49563 16.25 4.53125C16.25 9.0625 9.53125 13.0828 8.4375 13.7047C7.77578 13.3281 5.03906 11.7039 2.99766 9.47656C2.9412 9.4175 2.86385 9.38289 2.78219 9.38017C2.70053 9.37744 2.62104 9.4068 2.56077 9.46197C2.50049 9.51713 2.46422 9.59371 2.45973 9.6753C2.45523 9.75688 2.48287 9.83698 2.53672 9.89844C4.93672 12.5172 8.15391 14.2648 8.28906 14.3375C8.33467 14.3621 8.38568 14.375 8.4375 14.375C8.48932 14.375 8.54033 14.3621 8.58594 14.3375C10.0474 13.5156 11.4262 12.5546 12.7031 11.468C15.4688 9.09922 16.875 6.76484 16.875 4.53125C16.8736 3.32993 16.3957 2.17823 15.5462 1.32877C14.6968 0.47931 13.5451 0.00144725 12.3438 0Z"
        fill="currentColor" />
</svg>