<svg viewBox="0 0 18 15" fill="none" xmlns="http://www.w3.org/2000/svg">
    <path
        d="M17.1875 13.75H16.25V7.1875C16.25 6.93886 16.1512 6.7004 15.9754 6.52459C15.7996 6.34877 15.5611 6.25 15.3125 6.25H10.625V0.9375C10.625 0.68886 10.5262 0.450403 10.3504 0.274587C10.1746 0.0987719 9.93614 0 9.6875 0H2.1875C1.93886 0 1.7004 0.0987719 1.52459 0.274587C1.34877 0.450403 1.25 0.68886 1.25 0.9375V13.75H0.3125C0.22962 13.75 0.150134 13.7829 0.0915292 13.8415C0.0329241 13.9001 0 13.9796 0 14.0625C0 14.1454 0.0329241 14.2249 0.0915292 14.2835C0.150134 14.3421 0.22962 14.375 0.3125 14.375H17.1875C17.2704 14.375 17.3499 14.3421 17.4085 14.2835C17.4671 14.2249 17.5 14.1454 17.5 14.0625C17.5 13.9796 17.4671 13.9001 17.4085 13.8415C17.3499 13.7829 17.2704 13.75 17.1875 13.75ZM15.3125 6.875C15.3954 6.875 15.4749 6.90792 15.5335 6.96653C15.5921 7.02513 15.625 7.10462 15.625 7.1875V13.75H10.625V6.875H15.3125ZM1.875 0.9375C1.875 0.85462 1.90792 0.775134 1.96653 0.716529C2.02513 0.657924 2.10462 0.625 2.1875 0.625H9.6875C9.77038 0.625 9.84987 0.657924 9.90847 0.716529C9.96708 0.775134 10 0.85462 10 0.9375V13.75H8.125V9.6875C8.125 9.60462 8.09208 9.52513 8.03347 9.46653C7.97487 9.40792 7.89538 9.375 7.8125 9.375H4.0625C3.97962 9.375 3.90013 9.40792 3.84153 9.46653C3.78292 9.52513 3.75 9.60462 3.75 9.6875V13.75H1.875V0.9375ZM7.5 13.75H4.375V10H7.5V13.75ZM3.75 4.6875C3.75 4.60462 3.78292 4.52513 3.84153 4.46653C3.90013 4.40792 3.97962 4.375 4.0625 4.375H5.625V2.8125C5.625 2.72962 5.65792 2.65013 5.71653 2.59153C5.77513 2.53292 5.85462 2.5 5.9375 2.5C6.02038 2.5 6.09987 2.53292 6.15847 2.59153C6.21708 2.65013 6.25 2.72962 6.25 2.8125V4.375H7.8125C7.89538 4.375 7.97487 4.40792 8.03347 4.46653C8.09208 4.52513 8.125 4.60462 8.125 4.6875C8.125 4.77038 8.09208 4.84987 8.03347 4.90847C7.97487 4.96708 7.89538 5 7.8125 5H6.25V6.5625C6.25 6.64538 6.21708 6.72487 6.15847 6.78347C6.09987 6.84208 6.02038 6.875 5.9375 6.875C5.85462 6.875 5.77513 6.84208 5.71653 6.78347C5.65792 6.72487 5.625 6.64538 5.625 6.5625V5H4.0625C3.97962 5 3.90013 4.96708 3.84153 4.90847C3.78292 4.84987 3.75 4.77038 3.75 4.6875Z"
        fill="currentColor" />
</svg>