<svg width="22" height="18" viewBox="0 0 22 18" fill="none" xmlns="http://www.w3.org/2000/svg">
    <path
        d="M21.375 17.2518H19.5V9.2212L20.3597 10.0809C20.4301 10.1513 20.5255 10.1908 20.625 10.1908C20.7245 10.1908 20.8199 10.1513 20.8903 10.0809C20.9607 10.0105 21.0002 9.91509 21.0002 9.81557C21.0002 9.71606 20.9607 9.62063 20.8903 9.55026L11.6709 0.330887C11.5664 0.226007 11.4422 0.142791 11.3055 0.0860097C11.1687 0.0292286 11.0221 0 10.8741 0C10.726 0 10.5794 0.0292286 10.4426 0.0860097C10.3059 0.142791 10.1817 0.226007 10.0772 0.330887L0.859688 9.55026C0.824846 9.5851 0.797209 9.62647 0.778353 9.67199C0.759497 9.71751 0.749792 9.7663 0.749792 9.81557C0.749792 9.86485 0.759497 9.91364 0.778353 9.95916C0.797209 10.0047 0.824846 10.046 0.859688 10.0809C0.894529 10.1157 0.935891 10.1434 0.981414 10.1622C1.02694 10.1811 1.07573 10.1908 1.125 10.1908C1.17427 10.1908 1.22306 10.1811 1.26859 10.1622C1.31411 10.1434 1.35547 10.1157 1.39031 10.0809L2.25 9.2212V17.2518H0.375C0.275544 17.2518 0.180161 17.2913 0.109835 17.3617C0.0395088 17.432 0 17.5274 0 17.6268C0 17.7263 0.0395088 17.8217 0.109835 17.892C0.180161 17.9623 0.275544 18.0018 0.375 18.0018H21.375C21.4745 18.0018 21.5698 17.9623 21.6402 17.892C21.7105 17.8217 21.75 17.7263 21.75 17.6268C21.75 17.5274 21.7105 17.432 21.6402 17.3617C21.5698 17.2913 21.4745 17.2518 21.375 17.2518ZM3 8.4712L10.6097 0.861512C10.6445 0.826646 10.6859 0.798986 10.7314 0.780115C10.7769 0.761243 10.8257 0.75153 10.875 0.75153C10.9243 0.75153 10.9731 0.761243 11.0186 0.780115C11.0641 0.798986 11.1055 0.826646 11.1403 0.861512L18.75 8.4712V17.2518H13.5V11.6268C13.5 11.5274 13.4605 11.432 13.3902 11.3617C13.3198 11.2913 13.2245 11.2518 13.125 11.2518H8.625C8.52554 11.2518 8.43016 11.2913 8.35983 11.3617C8.28951 11.432 8.25 11.5274 8.25 11.6268V17.2518H3V8.4712ZM12.75 17.2518H9V12.0018H12.75V17.2518Z"
        fill="#674626" />
</svg>