<svg viewBox="0 0 52 46" fill="none" xmlns="http://www.w3.org/2000/svg">
    <path
        d="M52.0049 29.0049C52.0049 29.2701 51.8995 29.5244 51.712 29.712C51.5244 29.8995 51.2701 30.0049 51.0049 30.0049H46.0049V35.0049C46.0049 35.2701 45.8995 35.5244 45.712 35.712C45.5244 35.8995 45.2701 36.0049 45.0049 36.0049C44.7397 36.0049 44.4853 35.8995 44.2978 35.712C44.1102 35.5244 44.0049 35.2701 44.0049 35.0049V30.0049H39.0049C38.7397 30.0049 38.4853 29.8995 38.2978 29.712C38.1102 29.5244 38.0049 29.2701 38.0049 29.0049C38.0049 28.7396 38.1102 28.4853 38.2978 28.2978C38.4853 28.1102 38.7397 28.0049 39.0049 28.0049H44.0049V23.0049C44.0049 22.7396 44.1102 22.4853 44.2978 22.2978C44.4853 22.1102 44.7397 22.0049 45.0049 22.0049C45.2701 22.0049 45.5244 22.1102 45.712 22.2978C45.8995 22.4853 46.0049 22.7396 46.0049 23.0049V28.0049H51.0049C51.2701 28.0049 51.5244 28.1102 51.712 28.2978C51.8995 28.4853 52.0049 28.7396 52.0049 29.0049ZM5.00487 8.00487H10.0049V13.0049C10.0049 13.2701 10.1102 13.5244 10.2978 13.712C10.4853 13.8995 10.7396 14.0049 11.0049 14.0049C11.2701 14.0049 11.5244 13.8995 11.712 13.712C11.8995 13.5244 12.0049 13.2701 12.0049 13.0049V8.00487H17.0049C17.2701 8.00487 17.5244 7.89951 17.712 7.71197C17.8995 7.52444 18.0049 7.27008 18.0049 7.00487C18.0049 6.73965 17.8995 6.4853 17.712 6.29776C17.5244 6.11022 17.2701 6.00487 17.0049 6.00487H12.0049V1.00487C12.0049 0.739649 11.8995 0.485295 11.712 0.297759C11.5244 0.110223 11.2701 0.00486565 11.0049 0.00486565C10.7396 0.00486565 10.4853 0.110223 10.2978 0.297759C10.1102 0.485295 10.0049 0.739649 10.0049 1.00487V6.00487H5.00487C4.73965 6.00487 4.4853 6.11022 4.29776 6.29776C4.11022 6.4853 4.00487 6.73965 4.00487 7.00487C4.00487 7.27008 4.11022 7.52444 4.29776 7.71197C4.4853 7.89951 4.73965 8.00487 5.00487 8.00487ZM37.0049 40.0049H34.0049V37.0049C34.0049 36.7397 33.8995 36.4853 33.712 36.2978C33.5244 36.1102 33.2701 36.0049 33.0049 36.0049C32.7397 36.0049 32.4853 36.1102 32.2978 36.2978C32.1102 36.4853 32.0049 36.7397 32.0049 37.0049V40.0049H29.0049C28.7396 40.0049 28.4853 40.1102 28.2978 40.2978C28.1102 40.4853 28.0049 40.7397 28.0049 41.0049C28.0049 41.2701 28.1102 41.5244 28.2978 41.712C28.4853 41.8995 28.7396 42.0049 29.0049 42.0049H32.0049V45.0049C32.0049 45.2701 32.1102 45.5244 32.2978 45.712C32.4853 45.8995 32.7397 46.0049 33.0049 46.0049C33.2701 46.0049 33.5244 45.8995 33.712 45.712C33.8995 45.5244 34.0049 45.2701 34.0049 45.0049V42.0049H37.0049C37.2701 42.0049 37.5244 41.8995 37.712 41.712C37.8995 41.5244 38.0049 41.2701 38.0049 41.0049C38.0049 40.7397 37.8995 40.4853 37.712 40.2978C37.5244 40.1102 37.2701 40.0049 37.0049 40.0049ZM45.1249 10.2974L10.2974 45.1274C10.0187 45.407 9.68748 45.629 9.32282 45.7804C8.95817 45.9318 8.56721 46.0097 8.17237 46.0097C7.77752 46.0097 7.38657 45.9318 7.02191 45.7804C6.65725 45.629 6.32608 45.407 6.04737 45.1274L0.882365 39.9549C0.602685 39.6762 0.380775 39.345 0.229359 38.9803C0.0779425 38.6157 0 38.2247 0 37.8299C0 37.435 0.0779425 37.0441 0.229359 36.6794C0.380775 36.3148 0.602685 35.9836 0.882365 35.7049L35.7124 0.882365C35.9911 0.602685 36.3223 0.380775 36.6869 0.229359C37.0516 0.0779425 37.4425 0 37.8374 0C38.2322 0 38.6232 0.0779425 38.9878 0.229359C39.3525 0.380775 39.6837 0.602685 39.9624 0.882365L45.1249 6.05487C45.6874 6.61747 46.0035 7.3805 46.0035 8.17612C46.0035 8.97173 45.6874 9.73476 45.1249 10.2974ZM33.5899 19.0049L27.0049 12.4199L2.29737 37.1274C2.11035 37.3148 2.00533 37.5688 2.00533 37.8336C2.00533 38.0984 2.11035 38.3524 2.29737 38.5399L7.46737 43.7124C7.56024 43.8053 7.67053 43.8791 7.79193 43.9294C7.91332 43.9798 8.04345 44.0057 8.17487 44.0057C8.30628 44.0057 8.43641 43.9798 8.55781 43.9294C8.6792 43.8791 8.78949 43.8053 8.88237 43.7124L33.5899 19.0049ZM43.7124 7.46987L38.5399 2.29737C38.447 2.20439 38.3367 2.13063 38.2153 2.08031C38.0939 2.02998 37.9638 2.00408 37.8324 2.00408C37.701 2.00408 37.5708 2.02998 37.4494 2.08031C37.328 2.13063 37.2177 2.20439 37.1249 2.29737L28.4174 11.0049L35.0049 17.5899L43.7124 8.88237C43.8994 8.6949 44.0044 8.44091 44.0044 8.17612C44.0044 7.91132 43.8994 7.65733 43.7124 7.46987Z"
        fill="currentColor" />
</svg>