<svg width="23" height="17" viewBox="0 0 23 17" fill="none" xmlns="http://www.w3.org/2000/svg">
    <path
        d="M15.7483 15.7502C15.7483 15.9491 15.6693 16.1399 15.5287 16.2805C15.388 16.4212 15.1973 16.5002 14.9983 16.5002H1.49834C1.29943 16.5002 1.10866 16.4212 0.96801 16.2805C0.827358 16.1399 0.74834 15.9491 0.74834 15.7502C0.74834 15.5513 0.827358 15.3605 0.96801 15.2198C1.10866 15.0792 1.29943 15.0002 1.49834 15.0002H14.9983C15.1973 15.0002 15.388 15.0792 15.5287 15.2198C15.6693 15.3605 15.7483 15.5513 15.7483 15.7502ZM22.3399 3.63393L20.5924 1.39424L20.5812 1.38018C20.016 0.684112 19.2193 0.214673 18.3366 0.0576825C17.4538 -0.0993081 16.5441 0.0666361 15.7737 0.525179L10.939 3.4108L5.88209 1.5508C5.71309 1.48779 5.52703 1.48779 5.35803 1.5508L4.68584 1.80674L4.65584 1.81893C4.42588 1.91764 4.22427 2.07232 4.06937 2.26887C3.91448 2.46543 3.81122 2.69761 3.76901 2.94428C3.72679 3.19095 3.74696 3.44426 3.82768 3.68113C3.9084 3.91801 4.0471 4.13093 4.23115 4.30049L6.27959 6.28705L4.38865 7.4308L1.73928 6.53643C1.55177 6.47325 1.34689 6.48673 1.16928 6.57393L0.888028 6.71174C0.663013 6.81229 0.46624 6.96674 0.315111 7.16142C0.163982 7.35611 0.0631517 7.58503 0.0215373 7.82795C-0.0200771 8.07088 -0.00119374 8.32031 0.0765176 8.55419C0.154229 8.78808 0.288374 8.99922 0.46709 9.16893L3.84209 12.4755L3.85334 12.4867C4.54467 13.1402 5.45957 13.5047 6.41084 13.5058C7.07864 13.5047 7.73416 13.3261 8.31021 12.9883L22.1299 4.7383C22.2211 4.68381 22.2997 4.61056 22.3604 4.52341C22.4212 4.43627 22.4627 4.33721 22.4823 4.2328C22.5019 4.12838 22.4991 4.021 22.474 3.91776C22.449 3.81452 22.4023 3.71777 22.3371 3.63393H22.3399Z"
        fill="#FCDEC5" />
</svg>