<svg width="22" height="16" viewBox="0 0 22 16" fill="none" xmlns="http://www.w3.org/2000/svg">
    <path
        d="M15 15.3783C15 15.4778 14.9605 15.5732 14.8901 15.6435C14.8198 15.7138 14.7244 15.7533 14.625 15.7533H1.12498C1.02553 15.7533 0.930143 15.7138 0.859817 15.6435C0.789491 15.5732 0.749982 15.4778 0.749982 15.3783C0.749982 15.2789 0.789491 15.1835 0.859817 15.1132C0.930143 15.0428 1.02553 15.0033 1.12498 15.0033H14.625C14.7244 15.0033 14.8198 15.0428 14.8901 15.1132C14.9605 15.1835 15 15.2789 15 15.3783ZM21.7434 3.79176C21.7337 3.84403 21.7129 3.89364 21.6825 3.93728C21.6521 3.98092 21.6128 4.0176 21.5672 4.04488L7.74748 12.2949C7.22982 12.5978 6.64103 12.758 6.04123 12.7589C5.18502 12.758 4.3616 12.4296 3.73967 11.8411L0.349669 8.52426C0.215376 8.39653 0.11472 8.23759 0.0566489 8.06159C-0.00142227 7.88558 -0.01511 7.69796 0.0168026 7.51539C0.0487152 7.33282 0.125239 7.16096 0.239573 7.01509C0.353907 6.86922 0.502509 6.75386 0.672169 6.67926L0.959982 6.53863C1.04773 6.49604 1.14861 6.48932 1.24123 6.51988L4.05373 7.46957L6.51561 5.98457L4.11654 3.65957C3.9776 3.53272 3.8727 3.37304 3.81142 3.19516C3.75015 3.01728 3.73446 2.82688 3.7658 2.64137C3.79714 2.45586 3.8745 2.28117 3.9908 2.13329C4.10711 1.98541 4.25865 1.86906 4.43154 1.79488L4.44654 1.78926L5.11686 1.53519C5.2015 1.50357 5.29471 1.50357 5.37936 1.53519L10.604 3.45332L15.5925 0.47207C16.2859 0.059661 17.1045 -0.0894212 17.8988 0.0520775C18.693 0.193576 19.4098 0.616203 19.9181 1.24269L21.6703 3.49269C21.703 3.53453 21.7264 3.58282 21.739 3.63438C21.7516 3.68593 21.7531 3.73957 21.7434 3.79176ZM20.8181 3.61832L19.3322 1.71332C18.9366 1.22853 18.38 0.901944 17.7638 0.793025C17.1476 0.684106 16.5128 0.800098 15.975 1.11988L10.8356 4.18832C10.7875 4.2171 10.7336 4.23474 10.6778 4.23993C10.622 4.24512 10.5657 4.23774 10.5131 4.21832L5.24998 2.28238L4.71936 2.48301C4.66272 2.50893 4.61343 2.54857 4.57594 2.59832C4.53846 2.64807 4.51396 2.70637 4.50465 2.76797C4.49535 2.82956 4.50153 2.8925 4.52265 2.95111C4.54377 3.00971 4.57915 3.06213 4.62561 3.10363C4.62881 3.1073 4.63225 3.11075 4.63592 3.11394L7.38748 5.78488C7.42856 5.82485 7.45993 5.87371 7.47919 5.92769C7.49844 5.98168 7.50506 6.03936 7.49854 6.0963C7.49202 6.15325 7.47254 6.20794 7.44159 6.25618C7.41063 6.30442 7.36903 6.34492 7.31998 6.37457L4.29936 8.20082C4.25269 8.22911 4.2004 8.24687 4.14616 8.25286C4.09191 8.25885 4.03701 8.25293 3.98529 8.23551L1.15123 7.27926L0.994669 7.35613L0.977794 7.36457C0.920612 7.38914 0.870445 7.42756 0.831816 7.47636C0.793187 7.52516 0.767311 7.5828 0.756522 7.6441C0.745732 7.70539 0.750368 7.76841 0.770012 7.82747C0.789656 7.88652 0.82369 7.93976 0.869044 7.98238L4.25811 11.3002C4.66891 11.6866 5.19391 11.9295 5.75439 11.9924C6.31488 12.0553 6.88064 11.9348 7.36686 11.6489L20.8181 3.61832Z"
        fill="currentColor" />
</svg>