<svg viewBox="0 0 46 48" fill="none" xmlns="http://www.w3.org/2000/svg">
    <path
        d="M43 0H3C2.20435 0 1.44129 0.31607 0.878679 0.878679C0.31607 1.44129 0 2.20435 0 3V17C0 29.79 6.1825 37.53 11.3675 41.775C16.9675 46.355 22.505 47.9 22.7375 47.965C22.9094 48.0118 23.0906 48.0118 23.2625 47.965C23.495 47.9 29.0325 46.355 34.6325 41.775C39.8175 37.525 46 29.79 46 17V3C46 2.20435 45.6839 1.44129 45.1213 0.878679C44.5587 0.31607 43.7957 0 43 0ZM44 17C44 26.61 40.4425 34.4075 33.4275 40.1775C30.3298 42.7183 26.7967 44.6759 23 45.955C19.2028 44.677 15.6695 42.7193 12.5725 40.1775C5.5575 34.4075 2 26.61 2 17V3C2 2.73478 2.10536 2.48043 2.29289 2.29289C2.48043 2.10536 2.73478 2 3 2H43C43.2652 2 43.5196 2.10536 43.7071 2.29289C43.8946 2.48043 44 2.73478 44 3V17ZM33.7075 14.2925C33.8005 14.3854 33.8742 14.4957 33.9246 14.6171C33.9749 14.7385 34.0008 14.8686 34.0008 15C34.0008 15.1314 33.9749 15.2615 33.9246 15.3829C33.8742 15.5043 33.8005 15.6146 33.7075 15.7075L19.7075 29.7075C19.6146 29.8005 19.5043 29.8742 19.3829 29.9246C19.2615 29.9749 19.1314 30.0008 19 30.0008C18.8686 30.0008 18.7385 29.9749 18.6171 29.9246C18.4957 29.8742 18.3854 29.8005 18.2925 29.7075L12.2925 23.7075C12.1049 23.5199 11.9994 23.2654 11.9994 23C11.9994 22.7346 12.1049 22.4801 12.2925 22.2925C12.4801 22.1049 12.7346 21.9994 13 21.9994C13.2654 21.9994 13.5199 22.1049 13.7075 22.2925L19 27.585L32.2925 14.2925C32.3854 14.1995 32.4957 14.1258 32.6171 14.0754C32.7385 14.0251 32.8686 13.9992 33 13.9992C33.1314 13.9992 33.2615 14.0251 33.3829 14.0754C33.5043 14.1258 33.6146 14.1995 33.7075 14.2925Z"
        fill="currentColor" />
</svg>