<svg viewBox="0 0 16 16" fill="none" xmlns="http://www.w3.org/2000/svg">
    <path
        d="M13.4375 9.6875C13.4375 9.81111 13.4008 9.93195 13.3322 10.0347C13.2635 10.1375 13.1659 10.2176 13.0517 10.2649C12.9375 10.3122 12.8118 10.3246 12.6906 10.3005C12.5693 10.2764 12.458 10.2169 12.3706 10.1294C12.2831 10.042 12.2236 9.93067 12.1995 9.80943C12.1754 9.68819 12.1878 9.56253 12.2351 9.44832C12.2824 9.33412 12.3625 9.23651 12.4653 9.16783C12.568 9.09916 12.6889 9.0625 12.8125 9.0625C12.9783 9.0625 13.1372 9.12835 13.2544 9.24556C13.3717 9.36277 13.4375 9.52174 13.4375 9.6875ZM13.1117 12.4836C13.0366 13.3403 12.6434 14.1379 12.0097 14.7193C11.376 15.3007 10.5475 15.6238 9.6875 15.625H7.8125C6.90114 15.624 6.02739 15.2615 5.38296 14.617C4.73853 13.9726 4.37603 13.0989 4.375 12.1875V8.73828C3.18876 8.65902 2.07696 8.13198 1.26467 7.26385C0.452393 6.39573 0.000327306 5.25138 0 4.0625V0.3125C0 0.22962 0.0329241 0.150134 0.0915292 0.0915292C0.150134 0.0329241 0.22962 0 0.3125 0H2.1875C2.27038 0 2.34987 0.0329241 2.40847 0.0915292C2.46708 0.150134 2.5 0.22962 2.5 0.3125C2.5 0.39538 2.46708 0.474866 2.40847 0.533471C2.34987 0.592076 2.27038 0.625 2.1875 0.625H0.625V4.0625C0.624953 4.60056 0.731792 5.13327 0.939314 5.6297C1.14684 6.12614 1.45091 6.5764 1.83387 6.95435C2.21684 7.3323 2.67107 7.63041 3.1702 7.83137C3.66932 8.03233 4.20339 8.13214 4.74141 8.125C6.95312 8.09609 8.75 6.24453 8.75 3.99766V0.625H7.1875C7.10462 0.625 7.02513 0.592076 6.96653 0.533471C6.90792 0.474866 6.875 0.39538 6.875 0.3125C6.875 0.22962 6.90792 0.150134 6.96653 0.0915292C7.02513 0.0329241 7.10462 0 7.1875 0H9.0625C9.14538 0 9.22487 0.0329241 9.28347 0.0915292C9.34208 0.150134 9.375 0.22962 9.375 0.3125V3.99766C9.375 6.49766 7.43437 8.575 5 8.73906V12.1875C5 12.9334 5.29632 13.6488 5.82376 14.1762C6.35121 14.7037 7.06658 15 7.8125 15H9.6875C10.3824 14.9991 11.0524 14.7412 11.5687 14.2761C12.085 13.811 12.4111 13.1715 12.4844 12.4805C11.77 12.4006 11.1133 12.0502 10.6492 11.5013C10.1851 10.9524 9.94874 10.2466 9.98873 9.52889C10.0287 8.81117 10.342 8.13601 10.8643 7.64207C11.3865 7.14812 12.078 6.87288 12.7969 6.87288C13.5157 6.87288 14.2073 7.14812 14.7295 7.64207C15.2517 8.13601 15.565 8.81117 15.605 9.52889C15.645 10.2466 15.4087 10.9524 14.9446 11.5013C14.4804 12.0502 13.8238 12.4006 13.1094 12.4805L13.1117 12.4836ZM15 9.6875C15 9.25485 14.8717 8.83192 14.6313 8.47219C14.391 8.11246 14.0493 7.83208 13.6496 7.66651C13.2499 7.50095 12.8101 7.45763 12.3857 7.54203C11.9614 7.62644 11.5716 7.83478 11.2657 8.1407C10.9598 8.44663 10.7514 8.83641 10.667 9.26074C10.5826 9.68507 10.6259 10.1249 10.7915 10.5246C10.9571 10.9243 11.2375 11.266 11.5972 11.5063C11.9569 11.7467 12.3799 11.875 12.8125 11.875C13.0998 11.875 13.3842 11.8184 13.6496 11.7085C13.915 11.5986 14.1562 11.4374 14.3593 11.2343C14.5624 11.0312 14.7236 10.79 14.8335 10.5246C14.9434 10.2592 15 9.97477 15 9.6875Z"
        fill="currentColor" />
</svg>