<svg width="24" height="21" viewBox="0 0 24 21" fill="none" xmlns="http://www.w3.org/2000/svg">
    <path
        d="M23.0511 6.044L11.8011 0.044C11.7469 0.01511 11.6864 0 11.6249 0C11.5634 0 11.5029 0.01511 11.4486 0.044L0.198633 6.044C0.138635 6.07598 0.0884581 6.12366 0.0534703 6.18195C0.0184825 6.24024 0 6.30695 0 6.37494C0 6.44292 0.0184825 6.50963 0.0534703 6.56792C0.0884581 6.62622 0.138635 6.6739 0.198633 6.70588L2.99988 8.20025V12.9646C2.99774 13.2408 3.09793 13.508 3.28113 13.7146C4.46707 15.0356 7.12488 17.2518 11.6249 17.2518C13.5936 17.2518 15.2061 16.8281 16.4999 16.2402V19.8749C16.4999 19.9744 16.5394 20.0698 16.6097 20.1401C16.68 20.2104 16.7754 20.2499 16.8749 20.2499C16.9743 20.2499 17.0697 20.2104 17.14 20.1401C17.2104 20.0698 17.2499 19.9744 17.2499 19.8749V15.8606C18.2692 15.3006 19.188 14.5748 19.9686 13.7127C20.1517 13.506 20.2519 13.2389 20.2499 12.9627V8.20025L23.0511 6.70588C23.1111 6.6739 23.1613 6.62622 23.1963 6.56792C23.2313 6.50963 23.2498 6.44292 23.2498 6.37494C23.2498 6.30695 23.2313 6.24024 23.1963 6.18195C23.1613 6.12366 23.1111 6.07598 23.0511 6.044ZM11.6249 16.4999C7.42207 16.4999 4.9452 14.4374 3.84363 13.2112C3.78295 13.1434 3.74954 13.0556 3.74988 12.9646V8.59963L11.4486 12.7059C11.5029 12.7348 11.5634 12.7499 11.6249 12.7499C11.6864 12.7499 11.7469 12.7348 11.8011 12.7059L16.4999 10.1999V15.4059C15.2418 16.0312 13.6302 16.4999 11.6249 16.4999ZM19.4999 12.9646C19.4998 13.0558 19.4664 13.1438 19.4061 13.2121C18.7773 13.9071 18.051 14.5071 17.2499 14.9934V9.79963L19.4999 8.59963V12.9646ZM17.1946 8.97931C17.1596 8.92233 17.1101 8.87573 17.0511 8.84431L11.8011 6.044C11.7136 5.99927 11.6119 5.99073 11.5181 6.02022C11.4243 6.04972 11.3458 6.11488 11.2996 6.20168C11.2533 6.28848 11.2431 6.38997 11.2709 6.48428C11.2988 6.57859 11.3626 6.65817 11.4486 6.70588L16.453 9.37494L11.6249 11.9503L1.17176 6.37494L11.6249 0.799625L22.078 6.37494L17.1946 8.97931Z"
        fill="currentColor" />
</svg>