<svg viewBox="0 0 28 28" fill="none" xmlns="http://www.w3.org/2000/svg">
    <path
        d="M27 13H25.9575C25.7175 10.1743 24.486 7.5245 22.4808 5.51924C20.4755 3.51398 17.8257 2.28247 15 2.0425V1C15 0.734784 14.8946 0.48043 14.7071 0.292893C14.5196 0.105357 14.2652 0 14 0C13.7348 0 13.4804 0.105357 13.2929 0.292893C13.1054 0.48043 13 0.734784 13 1V2.0425C10.1743 2.28247 7.5245 3.51398 5.51924 5.51924C3.51398 7.5245 2.28247 10.1743 2.0425 13H1C0.734784 13 0.48043 13.1054 0.292893 13.2929C0.105357 13.4804 0 13.7348 0 14C0 14.2652 0.105357 14.5196 0.292893 14.7071C0.48043 14.8946 0.734784 15 1 15H2.0425C2.28247 17.8257 3.51398 20.4755 5.51924 22.4808C7.5245 24.486 10.1743 25.7175 13 25.9575V27C13 27.2652 13.1054 27.5196 13.2929 27.7071C13.4804 27.8946 13.7348 28 14 28C14.2652 28 14.5196 27.8946 14.7071 27.7071C14.8946 27.5196 15 27.2652 15 27V25.9575C17.8257 25.7175 20.4755 24.486 22.4808 22.4808C24.486 20.4755 25.7175 17.8257 25.9575 15H27C27.2652 15 27.5196 14.8946 27.7071 14.7071C27.8946 14.5196 28 14.2652 28 14C28 13.7348 27.8946 13.4804 27.7071 13.2929C27.5196 13.1054 27.2652 13 27 13ZM23 15H23.95C23.7159 17.2939 22.6978 19.4369 21.0673 21.0673C19.4369 22.6978 17.2939 23.7159 15 23.95V23C15 22.7348 14.8946 22.4804 14.7071 22.2929C14.5196 22.1054 14.2652 22 14 22C13.7348 22 13.4804 22.1054 13.2929 22.2929C13.1054 22.4804 13 22.7348 13 23V23.95C10.7061 23.7159 8.56313 22.6978 6.93267 21.0673C5.30221 19.4369 4.28406 17.2939 4.05 15H5C5.26522 15 5.51957 14.8946 5.70711 14.7071C5.89464 14.5196 6 14.2652 6 14C6 13.7348 5.89464 13.4804 5.70711 13.2929C5.51957 13.1054 5.26522 13 5 13H4.05C4.28406 10.7061 5.30221 8.56313 6.93267 6.93267C8.56313 5.30221 10.7061 4.28406 13 4.05V5C13 5.26522 13.1054 5.51957 13.2929 5.70711C13.4804 5.89464 13.7348 6 14 6C14.2652 6 14.5196 5.89464 14.7071 5.70711C14.8946 5.51957 15 5.26522 15 5V4.05C17.2939 4.28406 19.4369 5.30221 21.0673 6.93267C22.6978 8.56313 23.7159 10.7061 23.95 13H23C22.7348 13 22.4804 13.1054 22.2929 13.2929C22.1054 13.4804 22 13.7348 22 14C22 14.2652 22.1054 14.5196 22.2929 14.7071C22.4804 14.8946 22.7348 15 23 15ZM19 14C19 14.9889 18.7068 15.9556 18.1573 16.7779C17.6079 17.6001 16.827 18.241 15.9134 18.6194C14.9998 18.9978 13.9945 19.0969 13.0245 18.9039C12.0546 18.711 11.1637 18.2348 10.4645 17.5355C9.7652 16.8363 9.289 15.9454 9.09607 14.9755C8.90315 14.0055 9.00216 13.0002 9.3806 12.0866C9.75904 11.173 10.3999 10.3921 11.2221 9.84265C12.0444 9.29325 13.0111 9 14 9C15.3261 9 16.5979 9.52678 17.5355 10.4645C18.4732 11.4021 19 12.6739 19 14Z"
        fill="currentColor" />
</svg>