<svg viewBox="0 0 27 27" fill="none" xmlns="http://www.w3.org/2000/svg">
    <path
        d="M26.5 13H24.9888C24.8599 10.127 23.6608 7.40625 21.6273 5.37272C19.5938 3.33919 16.873 2.14009 14 2.01125V0.5C14 0.367392 13.9473 0.240215 13.8536 0.146447C13.7598 0.0526785 13.6326 0 13.5 0C13.3674 0 13.2402 0.0526785 13.1464 0.146447C13.0527 0.240215 13 0.367392 13 0.5V2.01125C10.127 2.14009 7.40625 3.33919 5.37272 5.37272C3.33919 7.40625 2.14009 10.127 2.01125 13H0.5C0.367392 13 0.240215 13.0527 0.146447 13.1464C0.0526785 13.2402 0 13.3674 0 13.5C0 13.6326 0.0526785 13.7598 0.146447 13.8536C0.240215 13.9473 0.367392 14 0.5 14H2.01125C2.14009 16.873 3.33919 19.5938 5.37272 21.6273C7.40625 23.6608 10.127 24.8599 13 24.9888V26.5C13 26.6326 13.0527 26.7598 13.1464 26.8536C13.2402 26.9473 13.3674 27 13.5 27C13.6326 27 13.7598 26.9473 13.8536 26.8536C13.9473 26.7598 14 26.6326 14 26.5V24.9888C16.873 24.8599 19.5938 23.6608 21.6273 21.6273C23.6608 19.5938 24.8599 16.873 24.9888 14H26.5C26.6326 14 26.7598 13.9473 26.8536 13.8536C26.9473 13.7598 27 13.6326 27 13.5C27 13.3674 26.9473 13.2402 26.8536 13.1464C26.7598 13.0527 26.6326 13 26.5 13ZM14 23.9875V22.5C14 22.3674 13.9473 22.2402 13.8536 22.1464C13.7598 22.0527 13.6326 22 13.5 22C13.3674 22 13.2402 22.0527 13.1464 22.1464C13.0527 22.2402 13 22.3674 13 22.5V23.9875C10.3924 23.8599 7.92544 22.7667 6.07935 20.9207C4.23326 19.0746 3.14006 16.6076 3.0125 14H4.5C4.63261 14 4.75979 13.9473 4.85355 13.8536C4.94732 13.7598 5 13.6326 5 13.5C5 13.3674 4.94732 13.2402 4.85355 13.1464C4.75979 13.0527 4.63261 13 4.5 13H3.0125C3.14006 10.3924 4.23326 7.92544 6.07935 6.07935C7.92544 4.23326 10.3924 3.14006 13 3.0125V4.5C13 4.63261 13.0527 4.75979 13.1464 4.85355C13.2402 4.94732 13.3674 5 13.5 5C13.6326 5 13.7598 4.94732 13.8536 4.85355C13.9473 4.75979 14 4.63261 14 4.5V3.0125C16.6076 3.14006 19.0746 4.23326 20.9207 6.07935C22.7667 7.92544 23.8599 10.3924 23.9875 13H22.5C22.3674 13 22.2402 13.0527 22.1464 13.1464C22.0527 13.2402 22 13.3674 22 13.5C22 13.6326 22.0527 13.7598 22.1464 13.8536C22.2402 13.9473 22.3674 14 22.5 14H23.9875C23.8599 16.6076 22.7667 19.0746 20.9207 20.9207C19.0746 22.7667 16.6076 23.8599 14 23.9875ZM13.5 9C12.61 9 11.74 9.26392 10.9999 9.75839C10.2599 10.2529 9.68314 10.9557 9.34254 11.7779C9.00195 12.6002 8.91283 13.505 9.08647 14.3779C9.2601 15.2508 9.68868 16.0526 10.318 16.682C10.9474 17.3113 11.7492 17.7399 12.6221 17.9135C13.495 18.0872 14.3998 17.9981 15.2221 17.6575C16.0443 17.3169 16.7471 16.7401 17.2416 16.0001C17.7361 15.26 18 14.39 18 13.5C18 12.3065 17.5259 11.1619 16.682 10.318C15.8381 9.47411 14.6935 9 13.5 9ZM13.5 17C12.8078 17 12.1311 16.7947 11.5555 16.4101C10.9799 16.0256 10.5313 15.4789 10.2664 14.8394C10.0015 14.1999 9.9322 13.4961 10.0673 12.8172C10.2023 12.1383 10.5356 11.5146 11.0251 11.0251C11.5146 10.5356 12.1383 10.2023 12.8172 10.0673C13.4961 9.9322 14.1999 10.0015 14.8394 10.2664C15.4789 10.5313 16.0256 10.9799 16.4101 11.5555C16.7947 12.1311 17 12.8078 17 13.5C17 14.4283 16.6313 15.3185 15.9749 15.9749C15.3185 16.6313 14.4283 17 13.5 17Z"
        fill="currentColor" />
</svg>