<svg viewBox="0 0 19 19" fill="none" xmlns="http://www.w3.org/2000/svg">
    <path
        d="M9.375 7.5C9.375 7.12916 9.26503 6.76665 9.05901 6.45831C8.85298 6.14996 8.56014 5.90964 8.21753 5.76773C7.87492 5.62581 7.49792 5.58868 7.13421 5.66103C6.77049 5.73337 6.4364 5.91195 6.17417 6.17417C5.91195 6.4364 5.73337 6.77049 5.66103 7.13421C5.58868 7.49792 5.62581 7.87492 5.76773 8.21753C5.90964 8.56014 6.14996 8.85298 6.45831 9.05901C6.76665 9.26503 7.12916 9.375 7.5 9.375C7.99728 9.375 8.47419 9.17746 8.82583 8.82583C9.17746 8.47419 9.375 7.99728 9.375 7.5ZM7.5 8.75C7.25277 8.75 7.0111 8.67669 6.80554 8.53934C6.59998 8.40199 6.43976 8.20676 6.34515 7.97835C6.25054 7.74995 6.22579 7.49861 6.27402 7.25614C6.32225 7.01366 6.4413 6.79093 6.61612 6.61612C6.79093 6.4413 7.01366 6.32225 7.25614 6.27402C7.49861 6.22579 7.74995 6.25054 7.97835 6.34515C8.20676 6.43976 8.40199 6.59998 8.53934 6.80554C8.67669 7.0111 8.75 7.25277 8.75 7.5C8.75 7.83152 8.6183 8.14946 8.38388 8.38388C8.14946 8.6183 7.83152 8.75 7.5 8.75ZM13.75 9.0625C13.75 9.24792 13.695 9.42918 13.592 9.58335C13.489 9.73752 13.3426 9.85768 13.1713 9.92864C13 9.99959 12.8115 10.0182 12.6296 9.98199C12.4477 9.94581 12.2807 9.85652 12.1496 9.72541C12.0185 9.5943 11.9292 9.42725 11.893 9.2454C11.8568 9.06354 11.8754 8.87504 11.9464 8.70373C12.0173 8.53243 12.1375 8.38601 12.2917 8.283C12.4458 8.17998 12.6271 8.125 12.8125 8.125C13.0611 8.125 13.2996 8.22377 13.4754 8.39959C13.6512 8.5754 13.75 8.81386 13.75 9.0625ZM10 12.8125C10 12.9979 9.94502 13.1792 9.842 13.3333C9.73899 13.4875 9.59257 13.6077 9.42126 13.6786C9.24996 13.7496 9.06146 13.7682 8.8796 13.732C8.69775 13.6958 8.5307 13.6065 8.39959 13.4754C8.26848 13.3443 8.17919 13.1773 8.14301 12.9954C8.10684 12.8135 8.12541 12.625 8.19636 12.4537C8.26732 12.2824 8.38748 12.136 8.54165 12.033C8.69582 11.93 8.87708 11.875 9.0625 11.875C9.31114 11.875 9.5496 11.9738 9.72541 12.1496C9.90123 12.3254 10 12.5639 10 12.8125ZM17.8125 8.75H16.243C16.1707 7.06121 15.5031 5.45248 14.3586 4.20859L15.5305 3.03672C15.5595 3.00768 15.5825 2.97322 15.5982 2.93528C15.614 2.89734 15.622 2.85669 15.622 2.81563C15.622 2.77456 15.614 2.73391 15.5982 2.69597C15.5825 2.65803 15.5595 2.62357 15.5305 2.59453C15.5014 2.5655 15.467 2.54247 15.429 2.52675C15.3911 2.51104 15.3504 2.50295 15.3094 2.50295C15.2683 2.50295 15.2277 2.51104 15.1897 2.52675C15.1518 2.54247 15.1173 2.5655 15.0883 2.59453L13.9164 3.76641C12.6725 2.62186 11.0638 1.95435 9.375 1.88203V0.3125C9.375 0.22962 9.34208 0.150134 9.28347 0.0915291C9.22487 0.032924 9.14538 0 9.0625 0C8.97962 0 8.90013 0.032924 8.84153 0.0915291C8.78292 0.150134 8.75 0.22962 8.75 0.3125V1.88203C7.06121 1.95435 5.45248 2.62186 4.20859 3.76641L3.03672 2.59453C2.97808 2.53589 2.89855 2.50295 2.81563 2.50295C2.7327 2.50295 2.65317 2.53589 2.59453 2.59453C2.53589 2.65317 2.50295 2.7327 2.50295 2.81563C2.50295 2.89855 2.53589 2.97808 2.59453 3.03672L3.76641 4.20859C2.62186 5.45248 1.95435 7.06121 1.88203 8.75H0.3125C0.22962 8.75 0.150134 8.78292 0.0915291 8.84153C0.032924 8.90013 0 8.97962 0 9.0625C0 9.14538 0.032924 9.22487 0.0915291 9.28347C0.150134 9.34208 0.22962 9.375 0.3125 9.375H1.88203C1.95435 11.0638 2.62186 12.6725 3.76641 13.9164L2.59453 15.0883C2.53589 15.1469 2.50295 15.2264 2.50295 15.3094C2.50295 15.3923 2.53589 15.4718 2.59453 15.5305C2.65317 15.5891 2.7327 15.622 2.81563 15.622C2.89855 15.622 2.97808 15.5891 3.03672 15.5305L4.20859 14.3586C5.45248 15.5031 7.06121 16.1707 8.75 16.243V17.8125C8.75 17.8954 8.78292 17.9749 8.84153 18.0335C8.90013 18.0921 8.97962 18.125 9.0625 18.125C9.14538 18.125 9.22487 18.0921 9.28347 18.0335C9.34208 17.9749 9.375 17.8954 9.375 17.8125V16.243C11.0638 16.1707 12.6725 15.5031 13.9164 14.3586L15.0883 15.5305C15.1469 15.5891 15.2264 15.622 15.3094 15.622C15.3923 15.622 15.4718 15.5891 15.5305 15.5305C15.5891 15.4718 15.622 15.3923 15.622 15.3094C15.622 15.2264 15.5891 15.1469 15.5305 15.0883L14.3586 13.9164C15.5031 12.6725 16.1707 11.0638 16.243 9.375H17.8125C17.8954 9.375 17.9749 9.34208 18.0335 9.28347C18.0921 9.22487 18.125 9.14538 18.125 9.0625C18.125 8.97962 18.0921 8.90013 18.0335 8.84153C17.9749 8.78292 17.8954 8.75 17.8125 8.75ZM9.0625 15.625C7.76456 15.625 6.49577 15.2401 5.41657 14.519C4.33737 13.7979 3.49624 12.773 2.99954 11.5739C2.50284 10.3747 2.37288 9.05522 2.6261 7.78222C2.87931 6.50922 3.50433 5.33989 4.42211 4.42211C5.33989 3.50433 6.50922 2.87931 7.78222 2.6261C9.05522 2.37288 10.3747 2.50284 11.5739 2.99954C12.773 3.49624 13.7979 4.33737 14.519 5.41657C15.2401 6.49577 15.625 7.76456 15.625 9.0625C15.6231 10.8024 14.9311 12.4705 13.7008 13.7008C12.4705 14.9311 10.8024 15.6231 9.0625 15.625Z"
        fill="currentColor" />
</svg>