<svg viewBox="0 0 17 17" fill="none" xmlns="http://www.w3.org/2000/svg">
    <path
        d="M16.2281 13.3385C16.2017 13.26 16.1453 13.1952 16.0711 13.1583C15.997 13.1214 15.9113 13.1154 15.8327 13.1416L14.2156 13.6807L11.8367 8.92288C11.8107 8.87096 11.7707 8.8273 11.7213 8.79681C11.6719 8.76631 11.615 8.75018 11.557 8.75022H4.99446V6.26194C5.09759 6.25491 5.2015 6.25022 5.30696 6.25022H9.68196C9.76484 6.25022 9.84433 6.2173 9.90294 6.15869C9.96154 6.10009 9.99446 6.0206 9.99446 5.93772C9.99446 5.85484 9.96154 5.77535 9.90294 5.71675C9.84433 5.65814 9.76484 5.62522 9.68196 5.62522H5.30696C5.20228 5.62522 5.09759 5.62522 4.99446 5.63538V4.35256C5.54184 4.27356 6.03897 3.99015 6.38581 3.55939C6.73265 3.12862 6.90345 2.58247 6.86385 2.03085C6.82424 1.47922 6.57717 0.963075 6.17235 0.586277C5.76753 0.209478 5.23501 0 4.68196 0C4.12892 0 3.5964 0.209478 3.19158 0.586277C2.78676 0.963075 2.53969 1.47922 2.50008 2.03085C2.46048 2.58247 2.63128 3.12862 2.97812 3.55939C3.32496 3.99015 3.82209 4.27356 4.36946 4.35256V5.7096C3.064 5.94507 1.89387 6.66043 1.08915 7.715C0.284442 8.76958 -0.0966202 10.0871 0.0208996 11.4084C0.138419 12.7297 0.746018 13.9592 1.72422 14.8552C2.70242 15.7512 3.98043 16.2488 5.30696 16.2502C7.78509 16.2502 10.0156 14.5744 10.6093 12.2658C10.6265 12.1869 10.6125 12.1043 10.5702 12.0355C10.5278 11.9666 10.4604 11.9169 10.3822 11.8967C10.3039 11.8764 10.2209 11.8873 10.1505 11.927C10.0801 11.9667 10.0278 12.0322 10.0046 12.1096C9.4804 14.1471 7.50462 15.6252 5.30696 15.6252C4.14518 15.6254 3.02471 15.1942 2.16284 14.4152C1.30097 13.6361 0.759108 12.5647 0.642341 11.4088C0.525573 10.2529 0.842217 9.09487 1.53087 8.15918C2.21952 7.2235 3.23111 6.57689 4.36946 6.34475V9.06272C4.36946 9.1456 4.40239 9.22509 4.46099 9.28369C4.5196 9.3423 4.59908 9.37522 4.68196 9.37522H11.364L13.7773 14.2026C13.8033 14.2545 13.8432 14.2981 13.8926 14.3286C13.942 14.3591 13.9989 14.3753 14.057 14.3752C14.0905 14.3752 14.1237 14.3696 14.1554 14.3588L16.0304 13.7338C16.0693 13.7208 16.1053 13.7003 16.1363 13.6734C16.1674 13.6465 16.1928 13.6138 16.2111 13.5771C16.2295 13.5404 16.2404 13.5004 16.2433 13.4595C16.2462 13.4185 16.241 13.3774 16.2281 13.3385ZM3.11947 2.18772C3.11947 1.87869 3.2111 1.57659 3.38279 1.31964C3.55448 1.06269 3.79851 0.86242 4.08402 0.744158C4.36953 0.625896 4.6837 0.594953 4.98679 0.655243C5.28989 0.715532 5.5683 0.864346 5.78682 1.08287C6.00534 1.30139 6.15415 1.5798 6.21444 1.88289C6.27473 2.18599 6.24379 2.50015 6.12553 2.78566C6.00727 3.07117 5.807 3.3152 5.55004 3.48689C5.29309 3.65858 4.991 3.75022 4.68196 3.75022C4.26756 3.75022 3.87014 3.5856 3.57711 3.29257C3.28409 2.99955 3.11947 2.60212 3.11947 2.18772Z"
        fill="currentColor" />
</svg>